<svg width="209" height="191" viewBox="0 0 209 191" fill="none" xmlns="http://www.w3.org/2000/svg">
<rect x="113.752" y="1" width="134" height="134" rx="25" transform="rotate(45 113.752 1)" fill="#E4F2F2"/>
<rect x="94.7522" width="134" height="134" rx="25" transform="rotate(45 94.7522 0)" fill="#70989A"/>
<path d="M118.562 58.7402H71.4383C66.4137 58.7402 62.3215 62.825 62.3215 67.8496V109.534C62.3215 114.558 66.4063 118.643 71.4309 118.643H73.4067V128.877C73.4067 129.706 73.8359 130.476 74.5463 130.905C74.9237 131.134 75.3529 131.253 75.7821 131.253C76.1521 131.253 76.5295 131.164 76.8699 130.994L100.92 118.651H118.569C123.594 118.651 127.678 114.566 127.678 109.541V67.8496C127.678 62.825 123.586 58.7402 118.562 58.7402ZM122.928 109.534C122.928 111.939 120.974 113.892 118.569 113.892H100.343C99.9653 113.892 99.5953 113.981 99.2549 114.151L78.1649 124.985V116.275C78.1649 114.965 77.0993 113.9 75.7895 113.9H71.4383C69.0333 113.9 67.0797 111.946 67.0797 109.541V67.8496C67.0797 65.4446 69.0333 63.491 71.4383 63.491H118.569C120.974 63.491 122.928 65.4446 122.928 67.8496V109.534Z" fill="white"/>
<path d="M95 72.001C89.0504 72.001 84.2034 76.8406 84.2034 82.7976C84.2034 84.0852 85.2542 85.136 86.5418 85.136C87.8294 85.136 88.8802 84.0852 88.8802 82.7976C88.8802 79.4232 91.6256 76.6778 95 76.6778C98.3744 76.6778 101.12 79.4232 101.12 82.7976C101.12 85.2766 99.6324 87.4966 97.331 88.4512C94.4968 89.6426 92.6616 92.4028 92.6616 95.4812C92.6616 96.7688 93.7124 97.8196 95 97.8196C96.1248 97.8196 97.0868 97.0204 97.294 95.9178C97.3236 95.7846 97.3384 95.6366 97.3384 95.4738C97.3384 94.2676 98.0636 93.1946 99.1958 92.7358L99.2476 92.7062C103.229 91.0042 105.797 87.1118 105.797 82.7902C105.797 76.8406 100.95 72.001 95 72.001Z" fill="white"/>
<path d="M94.7705 100.365C92.9279 100.365 91.4331 101.867 91.4331 103.703C91.4331 105.538 92.9279 107.04 94.7705 107.04C96.6131 107.04 98.1079 105.538 98.1079 103.703C98.1079 101.867 96.6131 100.365 94.7705 100.365Z" fill="white"/>
</svg>
